<svg width="32" height="32" viewBox="0 0 32 32" fill="none" xmlns="http://www.w3.org/2000/svg">
<path d="M13.3332 6.66667H18.6665C18.6665 5.95942 18.3856 5.28115 17.8855 4.78105C17.3854 4.28095 16.7071 4 15.9998 4C15.2926 4 14.6143 4.28095 14.1142 4.78105C13.6141 5.28115 13.3332 5.95942 13.3332 6.66667ZM11.3332 6.66667C11.3332 6.05383 11.4539 5.447 11.6884 4.88081C11.9229 4.31462 12.2667 3.80018 12.7 3.36683C13.1333 2.93349 13.6478 2.58975 14.214 2.35523C14.7802 2.12071 15.387 2 15.9998 2C16.6127 2 17.2195 2.12071 17.7857 2.35523C18.3519 2.58975 18.8663 2.93349 19.2997 3.36683C19.733 3.80018 20.0768 4.31462 20.3113 4.88081C20.5458 5.447 20.6665 6.05383 20.6665 6.66667H28.3332C28.5984 6.66667 28.8527 6.77202 29.0403 6.95956C29.2278 7.1471 29.3332 7.40145 29.3332 7.66667C29.3332 7.93188 29.2278 8.18624 29.0403 8.37377C28.8527 8.56131 28.5984 8.66667 28.3332 8.66667H26.5732L25.0132 24.8147C24.8935 26.052 24.3172 27.2003 23.3967 28.0358C22.4763 28.8712 21.2776 29.3338 20.0345 29.3333H11.9652C10.7223 29.3335 9.52397 28.8707 8.60377 28.0353C7.68357 27.1999 7.10748 26.0517 6.98784 24.8147L5.4265 8.66667H3.6665C3.40129 8.66667 3.14693 8.56131 2.9594 8.37377C2.77186 8.18624 2.6665 7.93188 2.6665 7.66667C2.6665 7.40145 2.77186 7.1471 2.9594 6.95956C3.14693 6.77202 3.40129 6.66667 3.6665 6.66667H11.3332ZM13.9998 13C13.9998 12.7348 13.8945 12.4804 13.7069 12.2929C13.5194 12.1054 13.2651 12 12.9998 12C12.7346 12 12.4803 12.1054 12.2927 12.2929C12.1052 12.4804 11.9998 12.7348 11.9998 13V23C11.9998 23.2652 12.1052 23.5196 12.2927 23.7071C12.4803 23.8946 12.7346 24 12.9998 24C13.2651 24 13.5194 23.8946 13.7069 23.7071C13.8945 23.5196 13.9998 23.2652 13.9998 23V13ZM18.9998 12C19.2651 12 19.5194 12.1054 19.7069 12.2929C19.8945 12.4804 19.9998 12.7348 19.9998 13V23C19.9998 23.2652 19.8945 23.5196 19.7069 23.7071C19.5194 23.8946 19.2651 24 18.9998 24C18.7346 24 18.4803 23.8946 18.2927 23.7071C18.1052 23.5196 17.9998 23.2652 17.9998 23V13C17.9998 12.7348 18.1052 12.4804 18.2927 12.2929C18.4803 12.1054 18.7346 12 18.9998 12ZM8.9785 24.6227C9.05042 25.3649 9.39616 26.0537 9.94833 26.5548C10.5005 27.056 11.2195 27.3335 11.9652 27.3333H20.0345C20.7802 27.3335 21.4992 27.056 22.0513 26.5548C22.6035 26.0537 22.9493 25.3649 23.0212 24.6227L24.5652 8.66667H7.4345L8.9785 24.6227Z" fill="#5B5B5B"/>
</svg>
