<svg width="139" height="7" viewBox="0 0 139 7" fill="none" xmlns="http://www.w3.org/2000/svg">
<path d="M8.6587 1C28.1933 1.06073 47.658 1.48239 67.1784 1.53917C77.0451 1.56787 86.8584 1.35396 96.7175 1.32714C103.178 1.30956 109.588 1.46305 116.038 1.45436C116.872 1.45323 127.1 1.0381 127.764 1.23021C127.812 1.24391 127.672 1.26135 127.597 1.26656C126.121 1.36863 122.672 1.49831 121.734 1.53311C109.949 1.97012 98.0953 2.31569 86.3034 2.74473C68.9773 3.37512 59.8984 3.75153 42.2461 4.4531C35.0334 4.73976 27.8263 5.03306 20.6083 5.31335C15.9696 5.49348 11.328 5.67051 6.6764 5.83434C4.90563 5.89671 3.12671 6.03484 1.34374 5.99185C-0.358124 5.95082 4.7248 5.87221 6.42512 5.82829C19.1895 5.49857 29.68 5.30914 42.9162 5.0892C67.6561 4.6781 92.4313 4.36423 117.211 4.08962C122.587 4.03003 128.524 4.04244 133.99 3.93211C135.107 3.90957 136.226 3.84674 137.257 3.75037C138.457 3.63816 138.087 3.49923 136.978 3.53228C132.042 3.67928 127.003 3.66886 122.041 3.76248C106.154 4.06222 90.4019 4.69683 74.4096 4.62879C56.968 4.55458 39.5845 4.17014 22.1439 4.06539C16.43 4.03107 9.43587 3.77214 3.68899 3.95028C2.10304 3.99944 6.90203 3.95191 8.49118 3.90788C34.7535 3.18012 61.1404 2.73735 87.504 2.22373C100.545 1.96966 113.811 1.51914 126.927 1.48465C127.841 1.48224 129.825 1.63215 130.277 1.43618" stroke="#3A83A1" stroke-linecap="round"/>
</svg>
